<svg width="1022" height="1022" viewBox="0 0 1022 1022" fill="none" xmlns="http://www.w3.org/2000/svg">
<rect width="1022" height="1022" rx="250" fill="#121212"/>
<path d="M315.626 231H756L637.31 349.554H315.626V231Z" fill="white"/>
<path d="M315.626 474.906L616.16 472.928L483.797 585.699H315.626V474.906Z" fill="white"/>
<path d="M397.813 290.759L397.812 518.229H266V290.759H397.813Z" fill="white"/>
<path d="M266 791V551.964H397.813V791H266Z" fill="white"/>
<path d="M578.133 551.964H756V791H578.133V551.964Z" fill="white"/>
<path d="M649.28 633.892H686.08V735.096H649.28V633.892Z" fill="#121212"/>
<path d="M615.903 446.904L703.501 498.654L551.651 657.351L464.053 605.601L615.903 446.904Z" fill="#121212"/>
<path d="M693.494 608.899L654.222 585.699L602.666 639.579L641.938 662.779L693.494 608.899Z" fill="white"/>
</svg>
