<svg width="686" height="172" viewBox="0 0 686 172" fill="none" xmlns="http://www.w3.org/2000/svg">
<path d="M48.378 169V3.57042H83.328V95.3724L129.695 44.1124H171.635L123.171 95.6054L173.033 169H134.821L100.57 115.41L83.328 133.817V169H48.378Z" fill="black"/>
<path d="M173.652 169V44.1124H208.602V169H173.652ZM172.953 28.7344V0.774414H209.068V28.7344H172.953Z" fill="black"/>
<path d="M232.119 169V42.4814C232.119 30.0548 235.458 20.5018 242.138 13.8224C248.817 6.98776 259.224 3.57042 273.36 3.57042H299.922V29.6664H280.816C276 29.6664 272.505 30.9091 270.331 33.3944C268.156 35.7244 267.069 39.2971 267.069 44.1124V169H232.119ZM213.945 74.8684V48.7724H298.058V74.8684H213.945Z" fill="black"/>
<path d="M356.582 171.796C343.845 171.796 332.739 169.156 323.263 163.874C313.788 158.438 306.41 150.826 301.128 141.04C295.847 131.254 293.206 119.76 293.206 106.556C293.206 93.3531 295.847 81.9361 301.128 72.3054C306.41 62.5194 313.788 54.9081 323.263 49.4714C332.739 44.0348 343.845 41.3164 356.582 41.3164C369.32 41.3164 380.426 44.0348 389.901 49.4714C399.377 54.9081 406.755 62.5194 412.036 72.3054C417.318 81.9361 419.958 93.3531 419.958 106.556C419.958 119.76 417.318 131.254 412.036 141.04C406.755 150.826 399.377 158.438 389.901 163.874C380.426 169.156 369.32 171.796 356.582 171.796ZM356.582 145.001C365.281 145.001 372.038 141.662 376.853 134.982C381.669 128.148 384.076 118.672 384.076 106.556C384.076 94.4404 381.669 85.0428 376.853 78.3634C372.038 71.5288 365.281 68.1114 356.582 68.1114C347.884 68.1114 341.127 71.5288 336.311 78.3634C331.496 85.0428 329.088 94.4404 329.088 106.556C329.088 118.672 331.496 128.148 336.311 134.982C341.127 141.662 347.884 145.001 356.582 145.001Z" fill="black"/>
<path d="M427.74 169V44.1124H460.826L461.991 80.4604L459.428 79.7614C461.448 67.1794 465.02 58.0924 470.146 52.5004C475.272 46.9084 482.34 44.1124 491.349 44.1124H502.766V73.0044H491.349C484.825 73.0044 479.466 73.8588 475.272 75.5674C471.078 77.2761 467.894 79.9944 465.719 83.7224C463.7 87.4504 462.69 92.4988 462.69 98.8674V169H427.74Z" fill="black"/>
<path d="M506.141 169V44.1124H537.596L538.761 74.1694L535.499 72.7714C537.208 66.0921 539.771 60.4224 543.188 55.7624C546.761 51.1024 551.032 47.5298 556.003 45.0444C560.974 42.5591 566.41 41.3164 572.313 41.3164C582.72 41.3164 591.108 44.3454 597.477 50.4034C604.001 56.4614 608.195 64.6164 610.059 74.8684L605.632 75.1014C607.03 67.8008 609.438 61.6651 612.855 56.6944C616.428 51.5684 620.777 47.7628 625.903 45.2774C631.029 42.6368 636.776 41.3164 643.145 41.3164C651.844 41.3164 659.3 43.1028 665.513 46.6754C671.726 50.2481 676.542 55.6071 679.959 62.7524C683.376 69.7424 685.085 78.3634 685.085 88.6154V169H650.135V98.4014C650.135 88.6154 648.659 81.3148 645.708 76.4994C642.757 71.5288 637.941 69.0434 631.262 69.0434C627.068 69.0434 623.495 70.2084 620.544 72.5384C617.593 74.8684 615.263 78.2858 613.554 82.7904C612.001 87.1398 611.224 92.4988 611.224 98.8674V169H579.769V98.8674C579.769 89.2368 578.371 81.8584 575.575 76.7324C572.779 71.6064 567.964 69.0434 561.129 69.0434C556.935 69.0434 553.285 70.2084 550.178 72.5384C547.227 74.8684 544.974 78.2858 543.421 82.7904C541.868 87.2951 541.091 92.6541 541.091 98.8674V169H506.141Z" fill="black"/>
<path d="M0 3.00037H36V169H0V3.00037Z" fill="black"/>
</svg>
